<?xml version="1.0" encoding="UTF-8" standalone="no"?>
<!DOCTYPE svg PUBLIC "-//W3C//DTD SVG 1.1//EN"
 "http://www.w3.org/Graphics/SVG/1.1/DTD/svg11.dtd">
<!-- Generated by graphviz version 2.38.0 (20140413.2041)
 -->
<!-- Title: G Pages: 1 -->
<svg width="570pt" height="295pt"
 viewBox="0.00 0.00 569.66 295.00" xmlns="http://www.w3.org/2000/svg" xmlns:xlink="http://www.w3.org/1999/xlink">
<g id="graph0" class="graph" transform="scale(1 1) rotate(0) translate(4 291)">
<title>G</title>
<polygon fill="white" stroke="none" points="-4,4 -4,-291 565.66,-291 565.66,4 -4,4"/>
<!-- host -->
<g id="node1" class="node"><title>host</title>
<polygon fill="none" stroke="black" points="201.906,-250.5 201.906,-286.5 255.906,-286.5 255.906,-250.5 201.906,-250.5"/>
<text text-anchor="middle" x="228.518" y="-275.1" font-family="Bitstream Vera Sans" font-size="8.00"> </text>
<polyline fill="none" stroke="black" points="201.906,-268.5 255.129,-268.5 "/>
<text text-anchor="middle" x="228.518" y="-257.1" font-family="Bitstream Vera Sans" font-size="8.00"> </text>
</g>
<!-- host_swap -->
<g id="node2" class="node"><title>host_swap</title>
<polygon fill="none" stroke="black" points="0,-141.5 0,-189.5 61.8125,-189.5 61.8125,-141.5 0,-141.5"/>
<text text-anchor="middle" x="30.9062" y="-179.1" font-family="Bitstream Vera Sans" font-size="8.00">swap</text>
<polyline fill="none" stroke="black" points="0,-173.5 61.8125,-173.5 "/>
<text text-anchor="start" x="8" y="-163.1" font-family="Bitstream Vera Sans" font-size="8.00">total : uint64</text>
<text text-anchor="start" x="8" y="-155.1" font-family="Bitstream Vera Sans" font-size="8.00">used : uint64</text>
<text text-anchor="start" x="8" y="-147.1" font-family="Bitstream Vera Sans" font-size="8.00">free : uint64</text>
</g>
<!-- host&#45;&gt;host_swap -->
<g id="edge1" class="edge"><title>host&#45;&gt;host_swap</title>
<path fill="none" stroke="black" d="M201.747,-262.953C168.569,-256.404 111.815,-241.909 70.9062,-214 64.2686,-209.472 58.1054,-203.554 52.7031,-197.44"/>
<polygon fill="black" stroke="black" points="55.3575,-195.157 46.2886,-189.679 49.9621,-199.617 55.3575,-195.157"/>
</g>
<!-- host_ram -->
<g id="node3" class="node"><title>host_ram</title>
<polygon fill="none" stroke="black" points="79.6621,-133.5 79.6621,-197.5 164.15,-197.5 164.15,-133.5 79.6621,-133.5"/>
<text text-anchor="middle" x="121.906" y="-187.1" font-family="Bitstream Vera Sans" font-size="8.00">ram</text>
<polyline fill="none" stroke="black" points="79.6621,-181.5 164.15,-181.5 "/>
<text text-anchor="start" x="87.6621" y="-171.1" font-family="Bitstream Vera Sans" font-size="8.00">total : uint64</text>
<text text-anchor="start" x="87.6621" y="-163.1" font-family="Bitstream Vera Sans" font-size="8.00">used : uint64</text>
<text text-anchor="start" x="87.6621" y="-155.1" font-family="Bitstream Vera Sans" font-size="8.00">free : uint64</text>
<text text-anchor="start" x="87.6621" y="-147.1" font-family="Bitstream Vera Sans" font-size="8.00">actualFree : uint64</text>
<text text-anchor="start" x="87.6621" y="-139.1" font-family="Bitstream Vera Sans" font-size="8.00">actualUsed : uint64</text>
</g>
<!-- host&#45;&gt;host_ram -->
<g id="edge2" class="edge"><title>host&#45;&gt;host_ram</title>
<path fill="none" stroke="black" d="M210.755,-250.367C197.519,-237.872 179.057,-220.446 162.389,-204.713"/>
<polygon fill="black" stroke="black" points="164.557,-201.947 154.883,-197.627 159.752,-207.037 164.557,-201.947"/>
</g>
<!-- host_fs -->
<g id="node4" class="node"><title>host_fs</title>
<polygon fill="none" stroke="black" points="182.447,-129.5 182.447,-201.5 275.365,-201.5 275.365,-129.5 182.447,-129.5"/>
<text text-anchor="middle" x="228.906" y="-191.1" font-family="Bitstream Vera Sans" font-size="8.00">fs[…]</text>
<polyline fill="none" stroke="black" points="182.447,-185.5 275.365,-185.5 "/>
<text text-anchor="start" x="190.447" y="-175.1" font-family="Bitstream Vera Sans" font-size="8.00">dirName : string</text>
<text text-anchor="start" x="190.447" y="-167.1" font-family="Bitstream Vera Sans" font-size="8.00">devName : string</text>
<text text-anchor="start" x="190.447" y="-159.1" font-family="Bitstream Vera Sans" font-size="8.00">typeName : string</text>
<text text-anchor="start" x="190.447" y="-151.1" font-family="Bitstream Vera Sans" font-size="8.00">sysTypeName : string</text>
<text text-anchor="start" x="190.447" y="-143.1" font-family="Bitstream Vera Sans" font-size="8.00">options : string</text>
<text text-anchor="start" x="190.447" y="-135.1" font-family="Bitstream Vera Sans" font-size="8.00">flags : int32</text>
</g>
<!-- host&#45;&gt;host_fs -->
<g id="edge3" class="edge"><title>host&#45;&gt;host_fs</title>
<path fill="none" stroke="black" d="M228.906,-250.367C228.906,-239.782 228.906,-225.659 228.906,-212.023"/>
<polygon fill="black" stroke="black" points="232.406,-211.758 228.906,-201.758 225.406,-211.758 232.406,-211.758"/>
</g>
<!-- host_cpu -->
<g id="node6" class="node"><title>host_cpu</title>
<polygon fill="none" stroke="black" points="293.559,-117.5 293.559,-213.5 360.254,-213.5 360.254,-117.5 293.559,-117.5"/>
<text text-anchor="middle" x="326.906" y="-203.1" font-family="Bitstream Vera Sans" font-size="8.00">cpu[…]</text>
<polyline fill="none" stroke="black" points="293.559,-197.5 360.254,-197.5 "/>
<text text-anchor="start" x="301.559" y="-187.1" font-family="Bitstream Vera Sans" font-size="8.00">id : int32</text>
<text text-anchor="start" x="301.559" y="-179.1" font-family="Bitstream Vera Sans" font-size="8.00">user : uint64</text>
<text text-anchor="start" x="301.559" y="-171.1" font-family="Bitstream Vera Sans" font-size="8.00">nice : uint64</text>
<text text-anchor="start" x="301.559" y="-163.1" font-family="Bitstream Vera Sans" font-size="8.00">sys : uint64</text>
<text text-anchor="start" x="301.559" y="-155.1" font-family="Bitstream Vera Sans" font-size="8.00">idle : uint64</text>
<text text-anchor="start" x="301.559" y="-147.1" font-family="Bitstream Vera Sans" font-size="8.00">wait : uint64</text>
<text text-anchor="start" x="301.559" y="-139.1" font-family="Bitstream Vera Sans" font-size="8.00">irq : uint64</text>
<text text-anchor="start" x="301.559" y="-131.1" font-family="Bitstream Vera Sans" font-size="8.00">softIrq : uint64</text>
<text text-anchor="start" x="301.559" y="-123.1" font-family="Bitstream Vera Sans" font-size="8.00">stolen : uint64</text>
</g>
<!-- host&#45;&gt;host_cpu -->
<g id="edge4" class="edge"><title>host&#45;&gt;host_cpu</title>
<path fill="none" stroke="black" d="M247.024,-250.434C257.887,-240.064 271.883,-226.463 283.906,-214 284.679,-213.199 285.456,-212.389 286.237,-211.571"/>
<polygon fill="black" stroke="black" points="289.017,-213.724 293.326,-204.044 283.922,-208.925 289.017,-213.724"/>
</g>
<!-- host_proc -->
<g id="node7" class="node"><title>host_proc</title>
<polygon fill="none" stroke="black" points="389.906,-147.5 389.906,-183.5 443.906,-183.5 443.906,-147.5 389.906,-147.5"/>
<text text-anchor="middle" x="416.752" y="-172.1" font-family="Bitstream Vera Sans" font-size="8.00">proc[…]</text>
<polyline fill="none" stroke="black" points="389.906,-165.5 443.598,-165.5 "/>
<text text-anchor="start" x="397.906" y="-154.1" font-family="Bitstream Vera Sans" font-size="8.00">pid : int32</text>
</g>
<!-- host&#45;&gt;host_proc -->
<g id="edge5" class="edge"><title>host&#45;&gt;host_proc</title>
<path fill="none" stroke="black" d="M255.989,-260.77C285.382,-252.668 332.931,-237.191 368.906,-214 378.514,-207.807 387.766,-199.441 395.539,-191.456"/>
<polygon fill="black" stroke="black" points="398.519,-193.393 402.778,-183.692 393.399,-188.619 398.519,-193.393"/>
</g>
<!-- host_fs_usage -->
<g id="node5" class="node"><title>host_fs_usage</title>
<polygon fill="none" stroke="black" points="184.336,-4.5 184.336,-76.5 259.477,-76.5 259.477,-4.5 184.336,-4.5"/>
<text text-anchor="middle" x="221.906" y="-66.1" font-family="Bitstream Vera Sans" font-size="8.00">usage</text>
<polyline fill="none" stroke="black" points="184.336,-60.5 259.477,-60.5 "/>
<text text-anchor="start" x="192.336" y="-50.1" font-family="Bitstream Vera Sans" font-size="8.00">total : uint64</text>
<text text-anchor="start" x="192.336" y="-42.1" font-family="Bitstream Vera Sans" font-size="8.00">used : uint64</text>
<text text-anchor="start" x="192.336" y="-34.1" font-family="Bitstream Vera Sans" font-size="8.00">free : uint64</text>
<text text-anchor="start" x="192.336" y="-26.1" font-family="Bitstream Vera Sans" font-size="8.00">avail : uint64</text>
<text text-anchor="start" x="192.336" y="-18.1" font-family="Bitstream Vera Sans" font-size="8.00">files : uint64</text>
<text text-anchor="start" x="192.336" y="-10.1" font-family="Bitstream Vera Sans" font-size="8.00">freeFiles : uint64</text>
</g>
<!-- host_fs&#45;&gt;host_fs_usage -->
<g id="edge6" class="edge"><title>host_fs&#45;&gt;host_fs_usage</title>
<path fill="none" stroke="black" d="M226.9,-129.253C226.153,-116.129 225.295,-101.041 224.502,-87.1193"/>
<polygon fill="black" stroke="black" points="227.975,-86.537 223.912,-76.752 220.986,-86.9348 227.975,-86.537"/>
</g>
<!-- host_proc_state -->
<g id="node8" class="node"><title>host_proc_state</title>
<polygon fill="none" stroke="black" points="277.664,-0.5 277.664,-80.5 362.148,-80.5 362.148,-0.5 277.664,-0.5"/>
<text text-anchor="middle" x="319.906" y="-70.1" font-family="Bitstream Vera Sans" font-size="8.00">state</text>
<polyline fill="none" stroke="black" points="277.664,-64.5 362.148,-64.5 "/>
<text text-anchor="start" x="285.664" y="-54.1" font-family="Bitstream Vera Sans" font-size="8.00">name : string</text>
<text text-anchor="start" x="285.664" y="-46.1" font-family="Bitstream Vera Sans" font-size="8.00">state : enumeration</text>
<text text-anchor="start" x="285.664" y="-38.1" font-family="Bitstream Vera Sans" font-size="8.00">ppid : int32</text>
<text text-anchor="start" x="285.664" y="-30.1" font-family="Bitstream Vera Sans" font-size="8.00">tty : int32</text>
<text text-anchor="start" x="285.664" y="-22.1" font-family="Bitstream Vera Sans" font-size="8.00">priority : int32</text>
<text text-anchor="start" x="285.664" y="-14.1" font-family="Bitstream Vera Sans" font-size="8.00">nice : int32</text>
<text text-anchor="start" x="285.664" y="-6.1" font-family="Bitstream Vera Sans" font-size="8.00">processor : int32</text>
</g>
<!-- host_proc&#45;&gt;host_proc_state -->
<g id="edge7" class="edge"><title>host_proc&#45;&gt;host_proc_state</title>
<path fill="none" stroke="black" d="M403.419,-147.397C391.47,-132.246 373.451,-109.397 357.205,-88.7965"/>
<polygon fill="black" stroke="black" points="359.788,-86.4198 350.848,-80.735 354.292,-90.7544 359.788,-86.4198"/>
</g>
<!-- host_proc_mem -->
<g id="node9" class="node"><title>host_proc_mem</title>
<polygon fill="none" stroke="black" points="379.779,-4.5 379.779,-76.5 466.033,-76.5 466.033,-4.5 379.779,-4.5"/>
<text text-anchor="middle" x="422.906" y="-66.1" font-family="Bitstream Vera Sans" font-size="8.00">mem</text>
<polyline fill="none" stroke="black" points="379.779,-60.5 466.033,-60.5 "/>
<text text-anchor="start" x="387.779" y="-50.1" font-family="Bitstream Vera Sans" font-size="8.00">size : uint64</text>
<text text-anchor="start" x="387.779" y="-42.1" font-family="Bitstream Vera Sans" font-size="8.00">resident : uint64</text>
<text text-anchor="start" x="387.779" y="-34.1" font-family="Bitstream Vera Sans" font-size="8.00">share : uint64</text>
<text text-anchor="start" x="387.779" y="-26.1" font-family="Bitstream Vera Sans" font-size="8.00">minorFaults : uint64</text>
<text text-anchor="start" x="387.779" y="-18.1" font-family="Bitstream Vera Sans" font-size="8.00">majorFaults : uint64</text>
<text text-anchor="start" x="387.779" y="-10.1" font-family="Bitstream Vera Sans" font-size="8.00">pageFaults : uint64</text>
</g>
<!-- host_proc&#45;&gt;host_proc_mem -->
<g id="edge8" class="edge"><title>host_proc&#45;&gt;host_proc_mem</title>
<path fill="none" stroke="black" d="M417.741,-147.397C418.504,-131.741 419.669,-107.864 420.699,-86.7429"/>
<polygon fill="black" stroke="black" points="424.2,-86.8026 421.192,-76.644 417.209,-86.4615 424.2,-86.8026"/>
</g>
<!-- host_proc_time -->
<g id="node10" class="node"><title>host_proc_time</title>
<polygon fill="none" stroke="black" points="484.152,-12.5 484.152,-68.5 561.66,-68.5 561.66,-12.5 484.152,-12.5"/>
<text text-anchor="middle" x="522.906" y="-58.1" font-family="Bitstream Vera Sans" font-size="8.00">time</text>
<polyline fill="none" stroke="black" points="484.152,-52.5 561.66,-52.5 "/>
<text text-anchor="start" x="492.152" y="-42.1" font-family="Bitstream Vera Sans" font-size="8.00">startTime : uint64</text>
<text text-anchor="start" x="492.152" y="-34.1" font-family="Bitstream Vera Sans" font-size="8.00">user : uint64</text>
<text text-anchor="start" x="492.152" y="-26.1" font-family="Bitstream Vera Sans" font-size="8.00">sys : uint64</text>
<text text-anchor="start" x="492.152" y="-18.1" font-family="Bitstream Vera Sans" font-size="8.00">total : uint64</text>
</g>
<!-- host_proc&#45;&gt;host_proc_time -->
<g id="edge9" class="edge"><title>host_proc&#45;&gt;host_proc_time</title>
<path fill="none" stroke="black" d="M431.645,-147.397C447.387,-129.131 472.77,-99.6765 492.776,-76.4629"/>
<polygon fill="black" stroke="black" points="495.455,-78.715 499.332,-68.855 490.153,-74.1453 495.455,-78.715"/>
</g>
</g>
</svg>
